<svg width="30" height="30" viewBox="0 0 30 30" fill="none" xmlns="http://www.w3.org/2000/svg">
<rect x="0.5" y="0.5" width="29" height="29" rx="14.5" stroke="#D5D5D5"/>
<path d="M14.9927 20.6465C12.7222 20.6465 11.1108 19.416 11.0669 17.6289H12.9858C13.0444 18.4785 13.894 19.0352 14.9927 19.0352C16.1646 19.0352 16.9995 18.3906 16.9995 17.4531C16.9995 16.501 16.1792 15.8125 14.8022 15.8125H13.8501V14.3477H14.8022C15.9302 14.3477 16.7212 13.7178 16.7065 12.7949C16.7212 11.9014 16.0474 11.3008 15.0073 11.3008C14.0112 11.3008 13.147 11.8574 13.1177 12.751H11.2866C11.3306 10.9639 12.9419 9.74805 15.022 9.74805C17.1753 9.74805 18.5669 11.0664 18.5522 12.6924C18.5669 13.8789 17.7759 14.7432 16.6187 14.9775V15.0654C18.1128 15.2705 18.9624 16.2227 18.9478 17.5557C18.9624 19.3428 17.2925 20.6465 14.9927 20.6465Z" fill="#D5D5D5"/>
</svg>
