<svg width="24" height="25" viewBox="0 0 24 25" fill="none" xmlns="http://www.w3.org/2000/svg">
<path d="M13.73 21.5005C13.5542 21.8036 13.3018 22.0551 12.9982 22.23C12.6946 22.4049 12.3504 22.4969 12 22.4969C11.6496 22.4969 11.3054 22.4049 11.0018 22.23C10.6982 22.0551 10.4458 21.8036 10.27 21.5005M18 8.50049C18 6.90919 17.3679 5.38307 16.2426 4.25785C15.1174 3.13263 13.5913 2.50049 12 2.50049C10.4087 2.50049 8.88258 3.13263 7.75736 4.25785C6.63214 5.38307 6 6.90919 6 8.50049C6 15.5005 3 17.5005 3 17.5005H21C21 17.5005 18 15.5005 18 8.50049Z" stroke="white" stroke-width="1.8" stroke-linecap="round" stroke-linejoin="round"/>
</svg>
