<svg width="15" height="4" viewBox="0 0 15 4" fill="none" xmlns="http://www.w3.org/2000/svg">
<path d="M1.73438 3.33203C0.894531 3.33203 0.210938 2.64844 0.210938 1.80859C0.210938 0.988281 0.894531 0.304688 1.73438 0.304688C2.53516 0.304688 3.23828 0.988281 3.23828 1.80859C3.23828 2.64844 2.53516 3.33203 1.73438 3.33203ZM7.18359 3.33203C6.34375 3.33203 5.66016 2.64844 5.66016 1.80859C5.66016 0.988281 6.34375 0.304688 7.18359 0.304688C7.98438 0.304688 8.6875 0.988281 8.6875 1.80859C8.6875 2.64844 7.98438 3.33203 7.18359 3.33203ZM12.6328 3.33203C11.793 3.33203 11.1094 2.64844 11.1094 1.80859C11.1094 0.988281 11.793 0.304688 12.6328 0.304688C13.4336 0.304688 14.1367 0.988281 14.1367 1.80859C14.1367 2.64844 13.4336 3.33203 12.6328 3.33203Z" fill="black"/>
</svg>
