<svg width="31" height="31" viewBox="0 0 31 31" fill="none" xmlns="http://www.w3.org/2000/svg">
<path d="M21.4378 4.6082V2.6582C21.4378 2.1457 21.0128 1.7207 20.5003 1.7207C19.9878 1.7207 19.5628 2.1457 19.5628 2.6582V4.5332H11.4378V2.6582C11.4378 2.1457 11.0128 1.7207 10.5003 1.7207C9.98779 1.7207 9.56279 2.1457 9.56279 2.6582V4.6082C6.18779 4.9207 4.55029 6.9332 4.30029 9.9207C4.27529 10.2832 4.57529 10.5832 4.92529 10.5832H26.0753C26.4378 10.5832 26.7378 10.2707 26.7003 9.9207C26.4503 6.9332 24.8128 4.9207 21.4378 4.6082Z" fill="currentColor"/>
<path d="M25.5 12.458H5.5C4.8125 12.458 4.25 13.0205 4.25 13.708V21.408C4.25 25.158 6.125 27.658 10.5 27.658H20.5C24.875 27.658 26.75 25.158 26.75 21.408V13.708C26.75 13.0205 26.1875 12.458 25.5 12.458ZM12.0125 22.9205C11.95 22.9705 11.8875 23.033 11.825 23.0705C11.75 23.1205 11.675 23.158 11.6 23.183C11.525 23.2205 11.45 23.2455 11.375 23.258C11.2875 23.2705 11.2125 23.283 11.125 23.283C10.9625 23.283 10.8 23.2455 10.65 23.183C10.4875 23.1205 10.3625 23.033 10.2375 22.9205C10.0125 22.683 9.875 22.358 9.875 22.033C9.875 21.708 10.0125 21.383 10.2375 21.1455C10.3625 21.033 10.4875 20.9455 10.65 20.883C10.875 20.783 11.125 20.758 11.375 20.808C11.45 20.8205 11.525 20.8455 11.6 20.883C11.675 20.908 11.75 20.9455 11.825 20.9955C11.8875 21.0455 11.95 21.0955 12.0125 21.1455C12.2375 21.383 12.375 21.708 12.375 22.033C12.375 22.358 12.2375 22.683 12.0125 22.9205ZM12.0125 18.5455C11.775 18.7705 11.45 18.908 11.125 18.908C10.8 18.908 10.475 18.7705 10.2375 18.5455C10.0125 18.308 9.875 17.983 9.875 17.658C9.875 17.333 10.0125 17.008 10.2375 16.7705C10.5875 16.4205 11.1375 16.308 11.6 16.508C11.7625 16.5705 11.9 16.658 12.0125 16.7705C12.2375 17.008 12.375 17.333 12.375 17.658C12.375 17.983 12.2375 18.308 12.0125 18.5455ZM16.3875 22.9205C16.15 23.1455 15.825 23.283 15.5 23.283C15.175 23.283 14.85 23.1455 14.6125 22.9205C14.3875 22.683 14.25 22.358 14.25 22.033C14.25 21.708 14.3875 21.383 14.6125 21.1455C15.075 20.683 15.925 20.683 16.3875 21.1455C16.6125 21.383 16.75 21.708 16.75 22.033C16.75 22.358 16.6125 22.683 16.3875 22.9205ZM16.3875 18.5455C16.325 18.5955 16.2625 18.6455 16.2 18.6955C16.125 18.7455 16.05 18.783 15.975 18.808C15.9 18.8455 15.825 18.8705 15.75 18.883C15.6625 18.8955 15.5875 18.908 15.5 18.908C15.175 18.908 14.85 18.7705 14.6125 18.5455C14.3875 18.308 14.25 17.983 14.25 17.658C14.25 17.333 14.3875 17.008 14.6125 16.7705C14.725 16.658 14.8625 16.5705 15.025 16.508C15.4875 16.308 16.0375 16.4205 16.3875 16.7705C16.6125 17.008 16.75 17.333 16.75 17.658C16.75 17.983 16.6125 18.308 16.3875 18.5455ZM20.7625 22.9205C20.525 23.1455 20.2 23.283 19.875 23.283C19.55 23.283 19.225 23.1455 18.9875 22.9205C18.7625 22.683 18.625 22.358 18.625 22.033C18.625 21.708 18.7625 21.383 18.9875 21.1455C19.45 20.683 20.3 20.683 20.7625 21.1455C20.9875 21.383 21.125 21.708 21.125 22.033C21.125 22.358 20.9875 22.683 20.7625 22.9205ZM20.7625 18.5455C20.7 18.5955 20.6375 18.6455 20.575 18.6955C20.5 18.7455 20.425 18.783 20.35 18.808C20.275 18.8455 20.2 18.8705 20.125 18.883C20.0375 18.8955 19.95 18.908 19.875 18.908C19.55 18.908 19.225 18.7705 18.9875 18.5455C18.7625 18.308 18.625 17.983 18.625 17.658C18.625 17.333 18.7625 17.008 18.9875 16.7705C19.1125 16.658 19.2375 16.5705 19.4 16.508C19.625 16.408 19.875 16.383 20.125 16.433C20.2 16.4455 20.275 16.4705 20.35 16.508C20.425 16.533 20.5 16.5705 20.575 16.6205C20.6375 16.6705 20.7 16.7205 20.7625 16.7705C20.9875 17.008 21.125 17.333 21.125 17.658C21.125 17.983 20.9875 18.308 20.7625 18.5455Z" fill="currentColor"/>
</svg>
