<svg width="83" height="80" viewBox="0 0 83 80" fill="none" xmlns="http://www.w3.org/2000/svg">
<path d="M27.4731 8.04016C33.6627 -2.67941 49.1351 -2.67939 55.3247 8.04016L80.5894 51.796C87.7189 64.1437 76.4609 78.8468 62.8374 75.4572L62.187 75.2814L55.23 73.2648C54.8436 73.5682 54.4224 73.8295 53.9722 74.0392C54.424 74.6587 54.6909 75.4217 54.6909 76.2472C54.6909 78.3194 53.0112 79.9991 50.939 79.9991C48.8667 79.9991 47.187 78.3194 47.187 76.2472C47.187 75.6719 47.3169 75.127 47.5483 74.6398H35.2476C35.479 75.127 35.6089 75.6719 35.6089 76.2472C35.6089 78.3194 33.9291 79.9991 31.8569 79.9991C29.7847 79.9991 28.105 78.3194 28.105 76.2472C28.105 75.3878 28.3934 74.5956 28.8794 73.963C28.4664 73.7566 28.0797 73.5056 27.7231 73.2189L20.6099 75.2814C6.91541 79.2504 -4.66748 64.8031 1.88232 52.3859L2.20752 51.796L27.4731 8.04016ZM49.8784 11.1847C46.1093 4.65708 36.6875 4.65709 32.9185 11.1847L7.65381 54.9405C3.24338 62.579 10.3882 71.6968 18.8599 69.2413L25.3179 67.3693V42.0499C25.3179 38.4975 28.1981 35.6173 31.7505 35.6173H34.9663V29.1857H33.0366V27.6847C33.0366 25.5532 34.7645 23.8253 36.896 23.8253H45.9009C48.0323 23.8254 49.7603 25.5533 49.7603 27.6847V29.1857H48.0435V35.6173H51.2612C54.8135 35.6175 57.6929 38.4976 57.6929 42.0499V67.4308L63.937 69.2413C72.4086 71.6969 79.5541 62.5789 75.144 54.9405L49.8784 11.1847ZM41.397 44.4083C40.6867 44.4084 40.111 44.9842 40.1108 45.6945V62.2042C40.1109 62.9146 40.6866 63.4903 41.397 63.4904C42.1073 63.4903 42.683 62.9146 42.6831 62.2042V45.6945C42.6829 44.9842 42.1073 44.4084 41.397 44.4083ZM48.2583 44.4083C47.548 44.4084 46.9723 44.9842 46.9722 45.6945V62.2042C46.9722 62.9146 47.5479 63.4903 48.2583 63.4904C48.9687 63.4903 49.5444 62.9146 49.5444 62.2042V45.6945C49.5443 44.9842 48.9686 44.4084 48.2583 44.4083ZM34.5376 44.4073C33.8273 44.4075 33.2516 44.9832 33.2515 45.6935V62.2032C33.2515 62.9136 33.8272 63.4893 34.5376 63.4894C35.248 63.4893 35.8246 62.9136 35.8247 62.2032V45.6935C35.8245 44.9832 35.2479 44.4074 34.5376 44.4073ZM38.1821 35.6173H44.8276V29.1857H38.1821V35.6173Z" fill="#4561DB"/>
</svg>
