<svg width="100" height="100" viewBox="0 0 100 100" fill="none" xmlns="http://www.w3.org/2000/svg">
<rect x="0.5" y="0.5" width="99" height="99" rx="4.5" fill="white"/>
<rect x="0.5" y="0.5" width="99" height="99" rx="4.5" stroke="#D5D5D5"/>
<path d="M40.5798 57.0103L40.5598 57.0303C40.2898 56.4403 40.1198 55.7703 40.0498 55.0303C40.1198 55.7603 40.3098 56.4203 40.5798 57.0103Z" fill="#D5D5D5"/>
<path d="M47.0001 48.3801C48.3146 48.3801 49.3801 47.3146 49.3801 46.0001C49.3801 44.6857 48.3146 43.6201 47.0001 43.6201C45.6857 43.6201 44.6201 44.6857 44.6201 46.0001C44.6201 47.3146 45.6857 48.3801 47.0001 48.3801Z" fill="#D5D5D5"/>
<path d="M54.19 40H45.81C42.17 40 40 42.17 40 45.81V54.19C40 55.28 40.19 56.23 40.56 57.03C41.42 58.93 43.26 60 45.81 60H54.19C57.83 60 60 57.83 60 54.19V51.9V45.81C60 42.17 57.83 40 54.19 40ZM58.37 50.5C57.59 49.83 56.33 49.83 55.55 50.5L51.39 54.07C50.61 54.74 49.35 54.74 48.57 54.07L48.23 53.79C47.52 53.17 46.39 53.11 45.59 53.65L41.85 56.16C41.63 55.6 41.5 54.95 41.5 54.19V45.81C41.5 42.99 42.99 41.5 45.81 41.5H54.19C57.01 41.5 58.5 42.99 58.5 45.81V50.61L58.37 50.5Z" fill="#D5D5D5"/>
</svg>
