<svg width="28" height="27" viewBox="0 0 28 27" fill="none" xmlns="http://www.w3.org/2000/svg">
<g id="Frame 7">
<path id="Union" d="M9.27201 2.71289C11.3612 -0.904223 16.5833 -0.904371 18.6724 2.71289L27.1997 17.4814C29.6058 21.649 25.8057 26.6112 21.2076 25.4668L20.9878 25.4082L18.6372 24.7266C18.5065 24.8289 18.3647 24.9176 18.2124 24.9883C18.3657 25.1976 18.4584 25.455 18.4585 25.7344C18.4585 26.4337 17.8912 27.0009 17.1919 27.001C16.4926 27.001 15.9254 26.4337 15.9253 25.7344C15.9254 25.5399 15.971 25.356 16.0494 25.1914H11.8941C11.9724 25.356 12.018 25.54 12.0181 25.7344C12.0181 26.4337 11.4509 27.0009 10.7515 27.001C10.0521 27.001 9.48493 26.4337 9.48491 25.7344C9.48501 25.4436 9.58375 25.1756 9.74858 24.9619C9.60903 24.8923 9.47847 24.8076 9.35795 24.7109L6.95561 25.4082L6.73588 25.4668C2.21099 26.5924 -1.54009 21.805 0.635296 17.6807L0.744671 17.4814L9.27201 2.71289ZM16.8345 3.77441C15.5624 1.57174 12.3821 1.57182 11.1099 3.77441L2.58256 18.543C1.09452 21.1209 3.50574 24.1977 6.36479 23.3691L8.54448 22.7373V14.1924C8.54472 12.9938 9.51677 12.0217 10.7154 12.0215H11.8013V9.84961H11.1499V9.34375C11.1502 8.62472 11.7327 8.04126 12.4517 8.04102H15.4917C16.2108 8.04121 16.7942 8.6247 16.7945 9.34375V9.84961H16.2154V12.0215H17.3003C18.4991 12.0215 19.471 12.9936 19.4712 14.1924V22.7578L21.5796 23.3691C24.4387 24.1975 26.8493 21.1209 25.3609 18.543L16.8345 3.77441ZM11.6558 14.9883C11.4165 14.9887 11.2225 15.1835 11.2222 15.4229V20.9941C11.2223 21.2337 11.4164 21.4283 11.6558 21.4287C11.8955 21.4287 12.0903 21.2339 12.0904 20.9941V15.4229C12.0901 15.1833 11.8954 14.9883 11.6558 14.9883ZM13.9722 14.9883C13.7327 14.9884 13.5379 15.1833 13.5376 15.4229V20.9941C13.5377 21.2338 13.7326 21.4286 13.9722 21.4287C14.2119 21.4287 14.4067 21.2339 14.4068 20.9941V15.4229C14.4065 15.1833 14.2118 14.9883 13.9722 14.9883ZM16.2886 14.9883C16.0491 14.9884 15.8543 15.1833 15.854 15.4229V20.9941C15.8541 21.2338 16.049 21.4286 16.2886 21.4287C16.5281 21.4284 16.7222 21.2337 16.7222 20.9941V15.4229C16.722 15.1834 16.528 14.9886 16.2886 14.9883ZM12.8863 12.0215H15.1304V9.84961H12.8863V12.0215Z" fill="white"/>
</g>
</svg>
