<svg width="31" height="31" viewBox="0 0 31 31" fill="none" xmlns="http://www.w3.org/2000/svg">
<path d="M16.9875 7.6582H8.9875C8.6625 7.6582 8.35 7.6707 8.05 7.7082C4.6875 7.9957 3 9.9832 3 13.6457V18.6457C3 23.6457 5 24.6332 8.9875 24.6332H9.4875C9.7625 24.6332 10.125 24.8207 10.2875 25.0332L11.7875 27.0332C12.45 27.9207 13.525 27.9207 14.1875 27.0332L15.6875 25.0332C15.875 24.7832 16.175 24.6332 16.4875 24.6332H16.9875C20.65 24.6332 22.6375 22.9582 22.925 19.5832C22.9625 19.2832 22.975 18.9707 22.975 18.6457V13.6457C22.975 9.6582 20.975 7.6582 16.9875 7.6582ZM8.625 17.6582C7.925 17.6582 7.375 17.0957 7.375 16.4082C7.375 15.7207 7.9375 15.1582 8.625 15.1582C9.3125 15.1582 9.875 15.7207 9.875 16.4082C9.875 17.0957 9.3125 17.6582 8.625 17.6582ZM12.9875 17.6582C12.2875 17.6582 11.7375 17.0957 11.7375 16.4082C11.7375 15.7207 12.3 15.1582 12.9875 15.1582C13.675 15.1582 14.2375 15.7207 14.2375 16.4082C14.2375 17.0957 13.6875 17.6582 12.9875 17.6582ZM17.3625 17.6582C16.6625 17.6582 16.1125 17.0957 16.1125 16.4082C16.1125 15.7207 16.675 15.1582 17.3625 15.1582C18.05 15.1582 18.6125 15.7207 18.6125 16.4082C18.6125 17.0957 18.05 17.6582 17.3625 17.6582Z" fill="#D5D5D5"/>
<path d="M27.9753 8.6457V13.6457C27.9753 16.1457 27.2003 17.8457 25.6503 18.7832C25.2753 19.0082 24.8378 18.7082 24.8378 18.2707L24.8503 13.6457C24.8503 8.6457 21.9878 5.7832 16.9878 5.7832L9.37531 5.7957C8.93781 5.7957 8.63781 5.3582 8.86281 4.9832C9.80031 3.4332 11.5003 2.6582 13.9878 2.6582H21.9878C25.9753 2.6582 27.9753 4.6582 27.9753 8.6457Z" fill="#D5D5D5"/>
</svg>
