<svg width="30" height="31" viewBox="0 0 30 31" fill="none" xmlns="http://www.w3.org/2000/svg">
<path d="M20.3125 28.2832C21.5206 28.2832 22.5 27.3038 22.5 26.0957C22.5 24.8876 21.5206 23.9082 20.3125 23.9082C19.1044 23.9082 18.125 24.8876 18.125 26.0957C18.125 27.3038 19.1044 28.2832 20.3125 28.2832Z" fill="currentColor"/>
<path d="M10.3125 28.2832C11.5206 28.2832 12.5 27.3038 12.5 26.0957C12.5 24.8876 11.5206 23.9082 10.3125 23.9082C9.10438 23.9082 8.125 24.8876 8.125 26.0957C8.125 27.3038 9.10438 28.2832 10.3125 28.2832Z" fill="currentColor"/>
<path d="M6.05 5.0832L5.8 8.1457C5.75 8.7332 6.2125 9.2207 6.8 9.2207H25.9375C26.4625 9.2207 26.9 8.8207 26.9375 8.2957C27.1 6.0832 25.4125 4.2832 23.2 4.2832H7.8375C7.7125 3.7332 7.4625 3.2082 7.075 2.7707C6.45 2.1082 5.575 1.7207 4.675 1.7207H2.5C1.9875 1.7207 1.5625 2.1457 1.5625 2.6582C1.5625 3.1707 1.9875 3.5957 2.5 3.5957H4.675C5.0625 3.5957 5.425 3.7582 5.6875 4.0332C5.95 4.3207 6.075 4.6957 6.05 5.0832Z" fill="currentColor"/>
<path d="M25.6376 11.0957H6.46257C5.93757 11.0957 5.51257 11.4957 5.46257 12.0082L5.01257 17.4457C4.83757 19.5832 6.51257 21.4082 8.65007 21.4082H22.5501C24.4251 21.4082 26.0751 19.8707 26.2126 17.9957L26.6251 12.1582C26.6751 11.5832 26.2251 11.0957 25.6376 11.0957Z" fill="currentColor"/>
</svg>
