<svg width="11" height="3" viewBox="0 0 11 3" fill="none" xmlns="http://www.w3.org/2000/svg">
<path d="M1.55078 2.99902C0.920898 2.99902 0.408203 2.48633 0.408203 1.85645C0.408203 1.24121 0.920898 0.728516 1.55078 0.728516C2.15137 0.728516 2.67871 1.24121 2.67871 1.85645C2.67871 2.48633 2.15137 2.99902 1.55078 2.99902ZM5.6377 2.99902C5.00781 2.99902 4.49512 2.48633 4.49512 1.85645C4.49512 1.24121 5.00781 0.728516 5.6377 0.728516C6.23828 0.728516 6.76562 1.24121 6.76562 1.85645C6.76562 2.48633 6.23828 2.99902 5.6377 2.99902ZM9.72461 2.99902C9.09473 2.99902 8.58203 2.48633 8.58203 1.85645C8.58203 1.24121 9.09473 0.728516 9.72461 0.728516C10.3252 0.728516 10.8525 1.24121 10.8525 1.85645C10.8525 2.48633 10.3252 2.99902 9.72461 2.99902Z" fill="#333333"/>
</svg>
