<svg width="30" height="31" viewBox="0 0 30 31" fill="none" xmlns="http://www.w3.org/2000/svg">
<path d="M25.0498 8.68331L17.8498 3.64581C15.8873 2.27081 12.8748 2.34581 10.9873 3.80831L4.7248 8.69581C3.4748 9.67081 2.4873 11.6708 2.4873 13.2458V21.8708C2.4873 25.0583 5.0748 27.6583 8.2623 27.6583H21.7373C24.9248 27.6583 27.5123 25.0708 27.5123 21.8833V13.4083C27.5123 11.7208 26.4248 9.64581 25.0498 8.68331ZM15.9373 22.6583C15.9373 23.1708 15.5123 23.5958 14.9998 23.5958C14.4873 23.5958 14.0623 23.1708 14.0623 22.6583V18.9083C14.0623 18.3958 14.4873 17.9708 14.9998 17.9708C15.5123 17.9708 15.9373 18.3958 15.9373 18.9083V22.6583Z" fill="#D5D5D5"/>
</svg>
